
<?xml version="1.0" encoding="utf-8" ?>
<svg baseProfile="full" height="600" version="1.1" width="600" xmlns="http://www.w3.org/2000/svg" xmlns:ev="http://www.w3.org/2001/xml-events" xmlns:xlink="http://www.w3.org/1999/xlink"><defs /><path d="M 142,430 L 141,431 L 140,431 L 137,434 L 137,436 L 136,437 L 136,438 L 137,439 L 137,441 L 140,444 L 141,444 L 142,445 L 228,445 L 229,444 L 230,444 L 232,442 L 232,441 L 233,440 L 233,435 L 232,434 L 232,433 L 230,431 L 229,431 L 228,430 Z" fill="black" /><path d="M 142,393 L 141,394 L 140,394 L 137,397 L 137,404 L 140,407 L 141,407 L 142,408 L 197,408 L 198,407 L 199,407 L 202,404 L 202,402 L 203,401 L 203,399 L 202,398 L 202,397 L 198,393 Z" fill="black" /><path d="M 340,257 L 336,261 L 336,263 L 335,264 L 336,265 L 336,268 L 355,287 L 355,288 L 336,307 L 336,314 L 337,315 L 337,316 L 338,317 L 339,317 L 340,318 L 342,318 L 343,319 L 344,318 L 346,318 L 347,317 L 348,317 L 366,299 L 367,299 L 386,318 L 388,318 L 389,319 L 390,319 L 391,318 L 393,318 L 396,315 L 396,314 L 397,313 L 397,309 L 396,308 L 396,307 L 377,288 L 396,269 L 396,268 L 397,267 L 397,262 L 396,261 L 396,260 L 394,258 L 393,258 L 392,257 L 387,257 L 386,258 L 385,258 L 366,277 L 347,258 L 346,258 L 345,257 Z" fill="black" /><path d="M 353,199 L 352,200 L 346,200 L 345,201 L 342,201 L 341,202 L 338,202 L 337,203 L 336,203 L 335,204 L 333,204 L 332,205 L 330,205 L 329,206 L 328,206 L 327,207 L 326,207 L 325,208 L 324,208 L 323,209 L 322,209 L 321,210 L 320,210 L 318,212 L 317,212 L 316,213 L 315,213 L 312,216 L 311,216 L 307,220 L 306,220 L 300,226 L 300,227 L 295,232 L 295,233 L 292,236 L 292,237 L 290,239 L 290,240 L 289,241 L 289,242 L 287,244 L 287,245 L 286,246 L 286,247 L 285,248 L 285,250 L 284,251 L 284,252 L 283,253 L 283,255 L 282,256 L 282,258 L 281,259 L 281,261 L 280,262 L 280,265 L 279,266 L 279,270 L 278,271 L 278,279 L 277,280 L 277,286 L 278,287 L 278,288 L 279,289 L 279,290 L 280,291 L 281,291 L 282,292 L 288,292 L 292,288 L 292,282 L 293,281 L 293,272 L 294,271 L 294,268 L 295,267 L 295,264 L 296,263 L 296,261 L 297,260 L 297,259 L 298,258 L 298,256 L 299,255 L 299,254 L 300,253 L 300,252 L 302,250 L 302,249 L 303,248 L 303,247 L 305,245 L 305,244 L 308,241 L 308,240 L 319,229 L 320,229 L 323,226 L 324,226 L 326,224 L 327,224 L 328,223 L 329,223 L 330,222 L 331,222 L 332,221 L 333,221 L 334,220 L 335,220 L 336,219 L 337,219 L 338,218 L 340,218 L 341,217 L 343,217 L 344,216 L 347,216 L 348,215 L 353,215 L 354,214 L 365,214 L 366,213 L 367,213 L 370,210 L 370,209 L 371,208 L 371,205 L 370,204 L 370,202 L 368,200 L 367,200 L 366,199 Z" fill="black" /><path d="M 172,111 L 171,112 L 170,112 L 95,187 L 95,188 L 94,189 L 94,462 L 95,463 L 95,466 L 96,467 L 96,468 L 97,469 L 97,471 L 99,473 L 99,474 L 108,483 L 109,483 L 110,484 L 111,484 L 112,485 L 113,485 L 114,486 L 115,486 L 116,487 L 118,487 L 119,488 L 379,488 L 380,487 L 382,487 L 383,486 L 384,486 L 385,485 L 386,485 L 387,484 L 388,484 L 389,483 L 390,483 L 398,475 L 398,474 L 400,472 L 400,471 L 401,470 L 401,469 L 402,468 L 402,467 L 403,466 L 403,463 L 404,462 L 404,433 L 400,429 L 394,429 L 393,430 L 392,430 L 391,431 L 391,432 L 390,433 L 390,434 L 389,435 L 389,459 L 388,460 L 388,462 L 387,463 L 387,464 L 386,465 L 386,466 L 382,470 L 381,470 L 379,472 L 377,472 L 376,473 L 122,473 L 121,472 L 119,472 L 117,470 L 116,470 L 112,466 L 112,465 L 111,464 L 111,463 L 110,462 L 110,461 L 109,460 L 109,201 L 110,200 L 150,200 L 151,199 L 157,199 L 158,198 L 160,198 L 161,197 L 162,197 L 163,196 L 165,196 L 167,194 L 168,194 L 170,192 L 171,192 L 175,188 L 175,187 L 177,185 L 177,184 L 179,182 L 179,181 L 180,180 L 180,178 L 181,177 L 181,175 L 182,174 L 182,169 L 183,168 L 183,127 L 184,126 L 376,126 L 377,127 L 379,127 L 381,129 L 382,129 L 386,133 L 386,134 L 387,135 L 387,136 L 388,137 L 388,138 L 389,139 L 389,167 L 388,168 L 387,167 L 381,167 L 380,166 L 353,166 L 352,167 L 346,167 L 345,168 L 341,168 L 340,169 L 336,169 L 335,170 L 333,170 L 332,171 L 329,171 L 328,172 L 326,172 L 325,173 L 324,173 L 323,174 L 321,174 L 320,175 L 319,175 L 318,176 L 316,176 L 315,177 L 314,177 L 313,178 L 312,178 L 311,179 L 310,179 L 309,180 L 308,180 L 306,182 L 305,182 L 304,183 L 303,183 L 301,185 L 300,185 L 299,186 L 298,186 L 295,189 L 294,189 L 291,192 L 290,192 L 283,199 L 283,204 L 284,205 L 284,206 L 287,209 L 294,209 L 298,205 L 299,205 L 302,202 L 303,202 L 306,199 L 307,199 L 309,197 L 310,197 L 311,196 L 312,196 L 314,194 L 315,194 L 316,193 L 317,193 L 318,192 L 319,192 L 320,191 L 321,191 L 322,190 L 323,190 L 324,189 L 326,189 L 327,188 L 328,188 L 329,187 L 331,187 L 332,186 L 334,186 L 335,185 L 338,185 L 339,184 L 341,184 L 342,183 L 346,183 L 347,182 L 354,182 L 355,181 L 378,181 L 379,182 L 385,182 L 386,183 L 389,183 L 390,184 L 393,184 L 394,185 L 397,185 L 398,186 L 400,186 L 401,187 L 403,187 L 404,188 L 406,188 L 407,189 L 408,189 L 409,190 L 410,190 L 411,191 L 412,191 L 413,192 L 414,192 L 415,193 L 416,193 L 417,194 L 418,194 L 419,195 L 420,195 L 422,197 L 423,197 L 424,198 L 425,198 L 428,201 L 429,201 L 432,204 L 433,204 L 440,211 L 441,211 L 442,212 L 442,213 L 443,214 L 444,214 L 445,215 L 445,216 L 450,221 L 450,222 L 453,225 L 453,226 L 455,228 L 455,229 L 457,231 L 457,232 L 459,234 L 459,235 L 460,236 L 460,237 L 461,238 L 461,239 L 462,240 L 462,241 L 463,242 L 463,243 L 464,244 L 464,245 L 465,246 L 465,248 L 466,249 L 466,250 L 467,251 L 467,253 L 468,254 L 468,256 L 469,257 L 469,260 L 470,261 L 470,263 L 471,264 L 471,269 L 472,270 L 472,276 L 473,277 L 473,299 L 472,300 L 472,306 L 471,307 L 471,311 L 470,312 L 470,315 L 469,316 L 469,318 L 468,319 L 468,321 L 467,322 L 467,324 L 466,325 L 466,327 L 465,328 L 465,329 L 464,330 L 464,332 L 463,333 L 463,334 L 462,335 L 462,336 L 460,338 L 460,339 L 459,340 L 459,341 L 458,342 L 458,343 L 456,345 L 456,346 L 454,348 L 454,349 L 452,351 L 452,352 L 447,357 L 447,358 L 436,369 L 435,369 L 431,373 L 430,373 L 427,376 L 426,376 L 424,378 L 423,378 L 421,380 L 420,380 L 419,381 L 418,381 L 417,382 L 416,382 L 415,383 L 414,383 L 413,384 L 412,384 L 411,385 L 410,385 L 409,386 L 408,386 L 407,387 L 405,387 L 404,388 L 402,388 L 401,389 L 399,389 L 398,390 L 396,390 L 395,391 L 392,391 L 391,392 L 388,392 L 387,393 L 382,393 L 381,394 L 371,394 L 370,395 L 362,395 L 361,394 L 351,394 L 350,393 L 346,393 L 345,392 L 341,392 L 340,391 L 338,391 L 337,390 L 334,390 L 333,389 L 331,389 L 330,388 L 328,388 L 327,387 L 326,387 L 325,386 L 324,386 L 323,385 L 321,385 L 320,384 L 319,384 L 318,383 L 317,383 L 315,381 L 314,381 L 313,380 L 312,380 L 311,379 L 310,379 L 308,377 L 307,377 L 304,374 L 303,374 L 300,371 L 299,371 L 294,366 L 293,366 L 292,365 L 292,364 L 283,355 L 283,354 L 279,350 L 279,349 L 277,347 L 277,346 L 275,344 L 275,343 L 274,342 L 274,341 L 273,340 L 273,339 L 271,337 L 271,336 L 270,335 L 270,334 L 269,333 L 269,332 L 268,331 L 268,329 L 267,328 L 267,327 L 266,326 L 266,324 L 265,323 L 265,321 L 264,320 L 264,318 L 263,317 L 263,314 L 262,313 L 262,310 L 261,309 L 261,304 L 260,303 L 260,294 L 259,293 L 259,284 L 260,283 L 260,272 L 261,271 L 261,267 L 262,266 L 262,262 L 263,261 L 263,258 L 264,257 L 264,255 L 265,254 L 265,252 L 266,251 L 266,250 L 267,249 L 267,247 L 268,246 L 268,245 L 269,244 L 269,243 L 270,242 L 270,241 L 271,240 L 271,239 L 272,238 L 272,237 L 273,236 L 273,235 L 274,234 L 274,233 L 275,232 L 275,231 L 276,230 L 276,226 L 275,225 L 275,224 L 272,221 L 265,221 L 261,225 L 261,226 L 260,227 L 260,228 L 259,229 L 259,230 L 258,231 L 258,232 L 257,233 L 257,234 L 256,235 L 256,236 L 255,237 L 255,238 L 254,239 L 254,240 L 253,241 L 253,243 L 252,244 L 252,246 L 251,247 L 251,249 L 250,250 L 250,252 L 249,253 L 249,255 L 248,256 L 248,259 L 247,260 L 247,264 L 246,265 L 246,270 L 245,271 L 245,279 L 244,280 L 244,295 L 245,296 L 245,305 L 246,306 L 246,311 L 247,312 L 247,315 L 248,316 L 248,319 L 249,320 L 249,323 L 250,324 L 250,326 L 251,327 L 251,329 L 252,330 L 252,332 L 253,333 L 253,334 L 254,335 L 254,336 L 255,337 L 255,339 L 256,340 L 256,341 L 257,342 L 257,343 L 259,345 L 259,346 L 260,347 L 260,348 L 261,349 L 261,350 L 262,351 L 262,352 L 264,354 L 264,355 L 266,357 L 266,358 L 269,361 L 269,362 L 273,366 L 273,367 L 287,381 L 288,381 L 292,385 L 293,385 L 296,388 L 297,388 L 299,390 L 300,390 L 301,391 L 302,391 L 304,393 L 305,393 L 306,394 L 307,394 L 309,396 L 310,396 L 311,397 L 312,397 L 313,398 L 315,398 L 316,399 L 317,399 L 318,400 L 319,400 L 320,401 L 322,401 L 323,402 L 324,402 L 325,403 L 327,403 L 328,404 L 331,404 L 332,405 L 334,405 L 335,406 L 338,406 L 339,407 L 343,407 L 344,408 L 348,408 L 349,409 L 359,409 L 360,410 L 373,410 L 374,409 L 383,409 L 384,408 L 389,408 L 390,407 L 394,407 L 395,406 L 397,406 L 398,405 L 401,405 L 402,404 L 404,404 L 405,403 L 407,403 L 408,402 L 410,402 L 411,401 L 412,401 L 413,400 L 415,400 L 416,399 L 417,399 L 418,398 L 419,398 L 420,397 L 421,397 L 422,396 L 423,396 L 424,395 L 425,395 L 426,394 L 427,394 L 429,392 L 430,392 L 432,390 L 433,390 L 434,389 L 435,389 L 438,386 L 439,386 L 442,383 L 443,383 L 447,379 L 494,426 L 495,426 L 496,427 L 500,427 L 501,426 L 502,426 L 504,424 L 504,423 L 505,422 L 505,416 L 458,369 L 458,368 L 462,364 L 462,363 L 465,360 L 465,359 L 467,357 L 467,356 L 469,354 L 469,353 L 471,351 L 471,350 L 472,349 L 472,348 L 474,346 L 474,344 L 476,342 L 476,341 L 477,340 L 477,338 L 478,337 L 478,336 L 479,335 L 479,334 L 480,333 L 480,331 L 481,330 L 481,328 L 482,327 L 482,325 L 483,324 L 483,322 L 484,321 L 484,319 L 485,318 L 485,314 L 486,313 L 486,308 L 487,307 L 487,302 L 488,301 L 488,275 L 487,274 L 487,267 L 486,266 L 486,263 L 485,262 L 485,258 L 484,257 L 484,254 L 483,253 L 483,251 L 482,250 L 482,248 L 481,247 L 481,245 L 480,244 L 480,243 L 479,242 L 479,240 L 478,239 L 478,238 L 477,237 L 477,236 L 476,235 L 476,234 L 475,233 L 475,232 L 474,231 L 474,230 L 473,229 L 473,228 L 471,226 L 471,225 L 470,224 L 470,223 L 468,221 L 468,220 L 467,219 L 467,218 L 464,215 L 464,214 L 459,209 L 459,208 L 445,194 L 444,194 L 440,190 L 439,190 L 437,188 L 436,188 L 433,185 L 432,185 L 431,184 L 430,184 L 428,182 L 427,182 L 426,181 L 425,181 L 424,180 L 423,180 L 422,179 L 421,179 L 420,178 L 419,178 L 418,177 L 417,177 L 416,176 L 415,176 L 414,175 L 412,175 L 411,174 L 410,174 L 409,173 L 407,173 L 406,172 L 405,172 L 404,171 L 404,137 L 403,136 L 403,134 L 402,133 L 402,131 L 401,130 L 401,129 L 400,128 L 400,127 L 399,126 L 399,125 L 390,116 L 389,116 L 388,115 L 387,115 L 386,114 L 385,114 L 384,113 L 383,113 L 382,112 L 380,112 L 379,111 Z" fill="black" /></svg>